<svg width="160" height="42" viewBox="0 0 160 42" fill="none" xmlns="http://www.w3.org/2000/svg">
<path d="M55.2021 28.1134V13.7962H50.9014V32.1516H61.922V28.1134H55.2021Z" fill="#10121B"/>
<path d="M67.1524 27.1694H76.6947C76.8022 26.6712 76.856 26.1467 76.856 25.5961C76.856 21.6366 73.953 18.6735 70.0285 18.6735C65.7816 18.6735 62.8786 21.689 62.8786 25.5961C62.8786 29.5032 65.7278 32.5187 70.3242 32.5187C72.8778 32.5187 74.8669 31.6009 76.184 29.8178L72.9584 28.0085C72.4208 28.5854 71.48 29.0049 70.378 29.0049C68.8996 29.0049 67.6631 28.5329 67.1524 27.1694ZM67.0718 24.2325C67.4481 22.8952 68.4695 22.161 70.0017 22.161C71.2112 22.161 72.4208 22.7117 72.8509 24.2325H67.0718Z" fill="#10121B"/>
<path d="M88.7689 19.0406V20.273C87.8819 19.2766 86.5648 18.6735 84.7638 18.6735C81.2426 18.6735 78.3396 21.689 78.3396 25.5961C78.3396 29.5032 81.2426 32.5187 84.7638 32.5187C86.5648 32.5187 87.8819 31.9156 88.7689 30.9191V32.1516H92.8008V19.0406H88.7689ZM85.5702 28.7952C83.7155 28.7952 82.3715 27.5627 82.3715 25.5961C82.3715 23.6294 83.7155 22.397 85.5702 22.397C87.4249 22.397 88.7689 23.6294 88.7689 25.5961C88.7689 27.5627 87.4249 28.7952 85.5702 28.7952Z" fill="#10121B"/>
<path d="M105.516 13.7962V20.273C104.629 19.2766 103.312 18.6735 101.511 18.6735C97.9899 18.6735 95.0869 21.689 95.0869 25.5961C95.0869 29.5032 97.9899 32.5187 101.511 32.5187C103.312 32.5187 104.629 31.9156 105.516 30.9191V32.1516H109.548V13.7962H105.516ZM102.317 28.7952C100.463 28.7952 99.1188 27.5627 99.1188 25.5961C99.1188 23.6294 100.463 22.397 102.317 22.397C104.172 22.397 105.516 23.6294 105.516 25.5961C105.516 27.5627 104.172 28.7952 102.317 28.7952Z" fill="#10121B"/>
<path d="M117.506 28.4805L122.586 21.6628V19.0406H112.372V22.7117H117.183L112.103 29.5294V32.1516H122.855V28.4805H117.506Z" fill="#10121B"/>
<path d="M127.279 17.8868C128.597 17.8868 129.699 16.8117 129.699 15.5268C129.699 14.242 128.597 13.1669 127.279 13.1669C125.962 13.1669 124.86 14.242 124.86 15.5268C124.86 16.8117 125.962 17.8868 127.279 17.8868ZM125.263 32.1516H129.295V19.0406H125.263V32.1516Z" fill="#10121B"/>
<path d="M132.246 32.1516H136.278V13.0095H132.246V32.1516Z" fill="#10121B"/>
<path d="M139.228 32.1516H143.26V13.0095H139.228V32.1516Z" fill="#10121B"/>
<path d="M155.968 19.0406V20.273C155.081 19.2766 153.764 18.6735 151.963 18.6735C148.442 18.6735 145.539 21.689 145.539 25.5961C145.539 29.5032 148.442 32.5187 151.963 32.5187C153.764 32.5187 155.081 31.9156 155.968 30.9191V32.1516H160V19.0406H155.968ZM152.769 28.7952C150.915 28.7952 149.571 27.5627 149.571 25.5961C149.571 23.6294 150.915 22.397 152.769 22.397C154.624 22.397 155.968 23.6294 155.968 25.5961C155.968 27.5627 154.624 28.7952 152.769 28.7952Z" fill="#10121B"/>
<ellipse cx="21.5267" cy="21" rx="21.5267" ry="21" fill="#FFE600"/>
<path d="M18.1992 12.7891C17.5495 7.89708 19.3657 1.85924 23.8969 12.8186L18.1992 12.7891Z" fill="url(#paint0_linear_117_1535)"/>
<path d="M15.2303 13.2735C13.9159 10.167 12.661 5.48675 18.1562 11.6174L15.2303 13.2735Z" fill="url(#paint1_linear_117_1535)"/>
<path d="M12.0899 15.0698C10.4872 13.1941 8.67439 10.0594 14.2446 12.5258L12.0899 15.0698Z" fill="url(#paint2_linear_117_1535)"/>
<path d="M11.1884 18.7118C8.93198 17.6548 5.94846 15.5376 12.0656 15.5247L11.1884 18.7118Z" fill="url(#paint3_linear_117_1535)"/>
<path d="M9.35648 24.526C7.79369 24.2478 5.96066 23.937 9.56282 22.8001L9.35648 24.526Z" fill="url(#paint4_linear_117_1535)"/>
<path d="M9.26981 21.4498C7.70701 21.1716 6.04083 20.6367 9.64298 19.4998L9.26981 21.4498Z" fill="url(#paint5_linear_117_1535)"/>
<mask id="mask0_117_1535" style="mask-type:alpha" maskUnits="userSpaceOnUse" x="0" y="0" width="44" height="42">
<ellipse cx="21.5267" cy="21" rx="21.5267" ry="21" fill="url(#paint6_linear_117_1535)"/>
</mask>
<g mask="url(#mask0_117_1535)">
<path d="M7.22443 25.0113C6.26933 30.0693 5.79243 36.8974 5.84928 39.5041C9.66959 44.0297 16.4805 44.8838 19.1526 45.1611C19.2891 41.7003 19.5045 38.5436 19.675 37.1571C20.3573 32.1656 20.8689 29.6699 21.3806 27.507C21.7899 25.7766 22.1488 25.8431 22.745 25.8431C23.4808 25.8431 25.8719 26.4532 27.0089 26.6751C29.4649 27.0744 31.4316 26.6751 32.455 26.3599C33.99 26.0271 35.9348 24.1628 36.2072 23.6978C36.8894 22.5331 37.2305 20.3702 36.7305 18.8551C35.6389 16.3261 35.0133 15.5418 32.6372 13.8637C30.4083 12.2895 26.952 11.2016 25.4739 10.7024C20.3456 9.38899 17.9126 10.2587 16.7756 10.7024C14.0467 11.5011 11.7727 14.2519 10.9768 15.5275C8.52078 18.9882 7.45188 23.292 7.22443 25.0113Z" fill="white"/>
</g>
<path d="M30.5186 21.8102C30.5729 23.1864 29.5387 24.3425 28.2087 24.3925C26.8786 24.4425 25.7563 23.3674 25.702 21.9912C25.6476 20.6151 26.7283 21.5468 28.0584 21.4968C29.3884 21.4468 30.4642 20.4341 30.5186 21.8102Z" fill="url(#paint7_linear_117_1535)"/>
<mask id="mask1_117_1535" style="mask-type:alpha" maskUnits="userSpaceOnUse" x="25" y="21" width="6" height="4">
<path d="M30.5186 21.8102C30.5729 23.1864 29.5387 24.3425 28.2087 24.3925C26.8786 24.4425 25.7563 23.3674 25.702 21.9912C25.6476 20.6151 26.7283 21.5468 28.0584 21.4968C29.3884 21.4468 30.4642 20.4341 30.5186 21.8102Z" fill="url(#paint8_linear_117_1535)"/>
</mask>
<g mask="url(#mask1_117_1535)">
<path d="M30.4195 25.3614C30.5014 23.9865 29.4907 22.8109 28.1619 22.7354C26.8331 22.66 25.6894 23.7135 25.6074 25.0883C25.5255 26.4632 26.6246 25.5523 27.9534 25.6277C29.2822 25.7031 30.3375 26.7362 30.4195 25.3614Z" fill="#B557FF"/>
</g>
<ellipse cx="24.3048" cy="16.4838" rx="1.15735" ry="1.12903" fill="url(#paint9_linear_117_1535)"/>
<ellipse cx="30.7853" cy="16.4838" rx="1.15735" ry="1.12903" fill="url(#paint10_linear_117_1535)"/>
<defs>
<linearGradient id="paint0_linear_117_1535" x1="17.9142" y1="10.1217" x2="23.2571" y2="9.56189" gradientUnits="userSpaceOnUse">
<stop stop-color="#1C1D32"/>
<stop offset="0.46" stop-color="#2F2E4E"/>
<stop offset="0.93" stop-color="#403D68"/>
</linearGradient>
<linearGradient id="paint1_linear_117_1535" x1="14.095" y1="11.3649" x2="16.8327" y2="9.73657" gradientUnits="userSpaceOnUse">
<stop stop-color="#1C1D32"/>
<stop offset="0.46" stop-color="#2F2E4E"/>
<stop offset="0.93" stop-color="#403D68"/>
</linearGradient>
<linearGradient id="paint2_linear_117_1535" x1="10.8333" y1="14.0568" x2="12.8154" y2="11.5979" gradientUnits="userSpaceOnUse">
<stop stop-color="#1C1D32"/>
<stop offset="0.46" stop-color="#2F2E4E"/>
<stop offset="0.93" stop-color="#403D68"/>
</linearGradient>
<linearGradient id="paint3_linear_117_1535" x1="9.61407" y1="18.2994" x2="10.4078" y2="15.2694" gradientUnits="userSpaceOnUse">
<stop stop-color="#1C1D32"/>
<stop offset="0.46" stop-color="#2F2E4E"/>
<stop offset="0.93" stop-color="#403D68"/>
</linearGradient>
<linearGradient id="paint4_linear_117_1535" x1="8.66993" y1="24.6035" x2="8.49029" y2="23.0103" gradientUnits="userSpaceOnUse">
<stop stop-color="#1C1D32"/>
<stop offset="0.46" stop-color="#2F2E4E"/>
<stop offset="0.93" stop-color="#403D68"/>
</linearGradient>
<linearGradient id="paint5_linear_117_1535" x1="8.73402" y1="21.5102" x2="8.53272" y2="19.725" gradientUnits="userSpaceOnUse">
<stop stop-color="#1C1D32"/>
<stop offset="0.46" stop-color="#2F2E4E"/>
<stop offset="0.93" stop-color="#403D68"/>
</linearGradient>
<linearGradient id="paint6_linear_117_1535" x1="31.4799" y1="75.871" x2="-24.9087" y2="10.2455" gradientUnits="userSpaceOnUse">
<stop stop-color="#5FBCFF"/>
<stop offset="0.364583" stop-color="#75C3FB"/>
<stop offset="0.686238" stop-color="#96E9F4"/>
<stop offset="1" stop-color="#5BF5FF"/>
</linearGradient>
<linearGradient id="paint7_linear_117_1535" x1="28.2087" y1="24.3925" x2="28.0937" y2="21.3319" gradientUnits="userSpaceOnUse">
<stop stop-color="#1C1D32"/>
<stop offset="0.46" stop-color="#2F2E4E"/>
<stop offset="0.93" stop-color="#403D68"/>
</linearGradient>
<linearGradient id="paint8_linear_117_1535" x1="28.2087" y1="24.3925" x2="28.0937" y2="21.3319" gradientUnits="userSpaceOnUse">
<stop stop-color="#1C1D32"/>
<stop offset="0.46" stop-color="#2F2E4E"/>
<stop offset="0.93" stop-color="#403D68"/>
</linearGradient>
<linearGradient id="paint9_linear_117_1535" x1="24.3048" y1="17.6128" x2="24.3048" y2="15.3547" gradientUnits="userSpaceOnUse">
<stop stop-color="#1C1D32"/>
<stop offset="0.46" stop-color="#2F2E4E"/>
<stop offset="0.93" stop-color="#403D68"/>
</linearGradient>
<linearGradient id="paint10_linear_117_1535" x1="30.7853" y1="17.6128" x2="30.7853" y2="15.3547" gradientUnits="userSpaceOnUse">
<stop stop-color="#1C1D32"/>
<stop offset="0.46" stop-color="#2F2E4E"/>
<stop offset="0.93" stop-color="#403D68"/>
</linearGradient>
</defs>
</svg>
